HIERARCHY
ROOT reference
{
  OFFSET 0 0 0
  CHANNELS 6 Xposition Yposition Zposition Zrotation Xrotation Yrotation
  JOINT Hips
  {
    OFFSET 42.3058 83.3743 257.512
    CHANNELS 6 Xposition Yposition Zposition Zrotation Xrotation Yrotation
    JOINT Spine
    {
      OFFSET 0 7.3847 0
      CHANNELS 6 Xposition Yposition Zposition Zrotation Xrotation Yrotation
      JOINT Spine1
      {
        OFFSET 0 22.52 0
        CHANNELS 6 Xposition Yposition Zposition Zrotation Xrotation Yrotation
        JOINT Neck
        {
          OFFSET 0 22.4276 2.03887
          CHANNELS 6 Xposition Yposition Zposition Zrotation Xrotation Yrotation
          JOINT Head
          {
            OFFSET 0 12.608 -1.80115
            CHANNELS 6 Xposition Yposition Zposition Zrotation Xrotation Yrotation
            End Site
            {
              OFFSET 0 22.5143 0
            }
          }
        }
        JOINT LeftShoulder
        {
          OFFSET 3.70204 19.5563 -0.329131
          CHANNELS 6 Xposition Yposition Zposition Zrotation Xrotation Yrotation
          JOINT LeftArm
          {
            OFFSET 13.7086 0 0
            CHANNELS 6 Xposition Yposition Zposition Zrotation Xrotation Yrotation
            JOINT LeftForeArm
            {
              OFFSET 25.9307 0 0
              CHANNELS 6 Xposition Yposition Zposition Zrotation Xrotation Yrotation
              JOINT LeftHand
              {
                OFFSET 23.5097 0 0
                CHANNELS 6 Xposition Yposition Zposition Zrotation Xrotation Yrotation
                End Site
                {
                  OFFSET 13.5086 0 0
                }
              }
            }
          }
        }
        JOINT RightShoulder
        {
          OFFSET -3.48695 19.5563 -0.329131
          CHANNELS 6 Xposition Yposition Zposition Zrotation Xrotation Yrotation
          JOINT RightArm
          {
            OFFSET -13.7086 0 0
            CHANNELS 6 Xposition Yposition Zposition Zrotation Xrotation Yrotation
            JOINT RightForeArm
            {
              OFFSET -25.9307 0 0
              CHANNELS 6 Xposition Yposition Zposition Zrotation Xrotation Yrotation
              JOINT RightHand
              {
                OFFSET -23.5097 0 0
                CHANNELS 6 Xposition Yposition Zposition Zrotation Xrotation Yrotation
                End Site
                {
                  OFFSET -13.5086 0 0
                }
              }
            }
          }
        }
      }
    }
    JOINT LeftUpLeg
    {
      OFFSET 9.00574 0 0
      CHANNELS 6 Xposition Yposition Zposition Zrotation Xrotation Yrotation
      JOINT LeftLeg
      {
        OFFSET 0 -37.3387 0
        CHANNELS 6 Xposition Yposition Zposition Zrotation Xrotation Yrotation
        JOINT LeftFoot
        {
          OFFSET 0 -36.155 0
          CHANNELS 6 Xposition Yposition Zposition Zrotation Xrotation Yrotation
          JOINT LeftToeBase
          {
            OFFSET 0 -5.85373 13.5086
            CHANNELS 6 Xposition Yposition Zposition Zrotation Xrotation Yrotation
            End Site
            {
              OFFSET 0 0 3.60229
            }
          }
        }
      }
    }
    JOINT RightUpLeg
    {
      OFFSET -9.00574 0 0
      CHANNELS 6 Xposition Yposition Zposition Zrotation Xrotation Yrotation
      JOINT RightLeg
      {
        OFFSET 0 -37.3387 0
        CHANNELS 6 Xposition Yposition Zposition Zrotation Xrotation Yrotation
        JOINT RightFoot
        {
          OFFSET 0 -36.155 0
          CHANNELS 6 Xposition Yposition Zposition Zrotation Xrotation Yrotation
          JOINT RightToeBase
          {
            OFFSET 0 -5.85373 13.5086
            CHANNELS 6 Xposition Yposition Zposition Zrotation Xrotation Yrotation
            End Site
            {
              OFFSET 0 0 3.60229
            }
          }
        }
      }
    }
  }
}
MOTION
Frames:	4
Frame Time:	0.004
0 0 0 0 0 -0 29.0455 75.2318 -184.875 -0.0349337 8.92719 5.48199 0 7.3847 -2.84217e-014 -3.26657 -8.9832 0.384193 0 22.52 0 2.10324 -3.87657 0.719474 7.10543e-015 22.4276 2.03887 5.29603 23.0233 0.304215 0 12.608 -1.80115 -2.95282 -2.03116 0.190395 3.70204 19.5563 -0.329131 16.4394 -0.0810493 -3.26459 13.7086 0 0 -31.299 -3.86012 6.732 25.9307 0 0 3.32023 2.20869 1.10785 23.5097 0 -2.84217e-014 -6.51389 2.19354 -0.297575 -3.48695 19.5563 -0.329131 -15.7544 -3.08397 -4.94194 -13.7086 0 0 21.1678 -0.348626 -0.165313 -25.9307 -2.84217e-014 -5.68434e-014 -3.21996 -0.151065 1.90842 -23.5097 -2.84217e-014 -2.84217e-014 -3.07432 -0.061157 -1.34752 9.00574 1.42109e-014 -2.84217e-014 -0.943399 -12.4373 -0.328359 0 -37.3387 0 -1.89147 16.0937 4.52308 0 -36.155 -2.84217e-014 0.407171 -11.2264 -0.18355 -1.42109e-014 -5.85373 13.5086 2.48481e-016 -1.98785e-016 1.59028e-015 -9.00574 1.42109e-014 -2.84217e-014 -0.050636 -6.76982 -1.29306 0 -37.3387 0 6.96912 9.74335 -4.62273 0 -36.155 0 -6.41999 -11.4851 -13.875 0 -5.85373 13.5086 -4.96962e-017 1.98785e-016 -0 
0 0 0 0 0 -0 29.0277 75.2318 -184.875 -0.024235 8.92704 5.49177 0 7.3847 -2.84217e-014 -3.24902 -8.9832 0.384193 0 22.52 2.84217e-014 2.07482 -3.87657 0.719474 -1.42109e-014 22.4276 2.03887 5.30452 23.0065 0.304178 0 12.608 -1.80115 -2.94458 -2.00445 0.190392 3.70204 19.5563 -0.329131 16.4544 -0.0810493 -3.26459 13.7086 1.42109e-014 -2.84217e-014 -31.2989 -3.86331 6.7289 25.9307 0 0 3.3235 2.205 1.09149 23.5097 0 0 -6.48901 2.18943 -0.283202 -3.48695 19.5563 -0.329131 -15.7366 -2.81771 -5.06801 -13.7086 0 2.84217e-014 21.15 -0.594023 0.123475 -25.9307 0 0 -3.16279 -0.163747 1.84598 -23.5097 0 0 -3.28812 -0.075321 -1.32418 9.00574 0 -2.84217e-014 -0.943399 -12.4373 -0.328359 0 -37.3387 0 -1.88853 16.1248 4.53636 0 -36.155 -2.84217e-014 0.412877 -11.2264 -0.205939 0 -5.85373 13.5086 -1.49089e-016 3.97569e-016 -1.59028e-015 -9.00574 0 0 -0.048126 -6.74575 -1.2763 0 -37.3387 -2.84217e-014 6.96748 9.72335 -4.62245 0 -36.155 -2.84217e-014 -6.43284 -11.4922 -13.8864 0 -5.85373 13.5086 9.93923e-017 -1.98785e-016 4.77083e-015 
0 0 0 0 0 -0 29.0185 75.2318 -184.873 -0.02141 8.92748 5.4965 0 7.3847 0 -3.2456 -8.9832 0.384193 -7.10543e-015 22.52 0 2.07871 -3.87657 0.716971 0 22.4276 2.03887 5.31069 22.9854 0.30413 -1.42109e-014 12.608 -1.80115 -2.96632 -1.96583 0.190388 3.70204 19.5563 -0.329131 16.4447 -0.0810493 -3.26459 13.7086 1.42109e-014 -2.84217e-014 -31.3033 -3.82741 6.71607 25.9307 0 0 3.34665 2.18016 1.09003 23.5097 0 0 -6.51034 2.1653 -0.297958 -3.48695 19.5563 -0.329131 -15.7498 -2.81407 -5.06739 -13.7086 2.84217e-014 2.84217e-014 21.1495 -0.60058 0.130831 -25.9307 0 2.84217e-014 -3.16465 -0.167711 1.84947 -23.5097 0 0 -3.30403 -0.07855 -1.31467 9.00574 -1.42109e-014 0 -0.943398 -12.4372 -0.328359 0 -37.3387 2.84217e-014 -1.88723 16.1242 4.53317 0 -36.155 -2.84217e-014 0.4059 -11.2264 -0.206246 1.42109e-014 -5.85373 13.5086 2.48481e-016 -3.97569e-016 -0 -9.00574 0 2.84217e-014 -0.047216 -6.74543 -1.28096 0 -37.3387 2.84217e-014 6.96623 9.72833 -4.61279 -3.55271e-015 -36.155 2.84217e-014 -6.44793 -11.498 -13.8832 3.55271e-015 -5.85373 13.5086 -2.48481e-017 -9.93923e-017 1.59028e-015 
0 0 0 0 0 -0 29.0103 75.2318 -184.87 -0.0129551 8.92509 5.4995 0 7.3847 0 -3.24694 -8.9832 0.384193 0 22.52 0 2.07182 -3.87658 0.713623 0 22.4276 2.03887 5.31999 22.989 0.304138 1.42109e-014 12.608 -1.80115 -2.98068 -1.97328 0.190389 3.70204 19.5563 -0.329131 16.46 -0.076625 -3.26459 13.7086 1.42109e-014 -2.84217e-014 -31.3184 -3.84338 6.7278 25.9307 5.68434e-014 0 3.34396 2.18587 1.07897 23.5097 2.84217e-014 0 -6.46166 2.17135 -0.300152 -3.48695 19.5563 -0.329131 -15.7536 -2.81516 -5.06406 -13.7086 -2.84217e-014 0 21.1497 -0.550555 0.144288 -25.9307 0 0 -3.22227 -0.150123 1.85598 -23.5097 0 2.84217e-014 -3.11484 -0.060998 -1.35083 9.00574 0 2.84217e-014 -0.953218 -12.4492 -0.328375 1.42109e-014 -37.3387 -2.84217e-014 -1.87475 16.1516 4.52678 1.42109e-014 -36.155 0 0.392318 -11.2264 -0.213019 0 -5.85373 13.5086 5.51738e-033 1.98785e-016 -1.59028e-015 -9.00574 -1.42109e-014 2.84217e-014 -0.050439 -6.72047 -1.13452 0 -37.3387 0 6.98724 9.66171 -4.76853 3.55271e-015 -36.155 0 -6.45409 -11.4822 -13.8745 3.55271e-015 -5.85373 13.5086 9.93923e-017 0 1.59028e-015 
